<svg width="120" height="60" viewBox="0 0 120 60" fill="none" xmlns="http://www.w3.org/2000/svg">
<rect x="0.5" y="0.5" width="119" height="59" rx="4.5" fill="white"/>
<path d="M42.2784 36V24.3636H44.0341V34.4886H49.3068V36H42.2784ZM54.8494 36.1761C54.0313 36.1761 53.3172 35.9886 52.7074 35.6136C52.0975 35.2386 51.6241 34.714 51.2869 34.0398C50.9498 33.3655 50.7812 32.5777 50.7812 31.6761C50.7812 30.7708 50.9498 29.9792 51.2869 29.3011C51.6241 28.6231 52.0975 28.0966 52.7074 27.7216C53.3172 27.3466 54.0313 27.1591 54.8494 27.1591C55.6676 27.1591 56.3816 27.3466 56.9915 27.7216C57.6013 28.0966 58.0748 28.6231 58.4119 29.3011C58.7491 29.9792 58.9176 30.7708 58.9176 31.6761C58.9176 32.5777 58.7491 33.3655 58.4119 34.0398C58.0748 34.714 57.6013 35.2386 56.9915 35.6136C56.3816 35.9886 55.6676 36.1761 54.8494 36.1761ZM54.8551 34.75C55.3854 34.75 55.8248 34.6098 56.1733 34.3295C56.5218 34.0492 56.7794 33.6761 56.946 33.2102C57.1165 32.7443 57.2017 32.2311 57.2017 31.6705C57.2017 31.1136 57.1165 30.6023 56.946 30.1364C56.7794 29.6667 56.5218 29.2898 56.1733 29.0057C55.8248 28.7216 55.3854 28.5795 54.8551 28.5795C54.321 28.5795 53.8778 28.7216 53.5256 29.0057C53.1771 29.2898 52.9176 29.6667 52.7472 30.1364C52.5805 30.6023 52.4972 31.1136 52.4972 31.6705C52.4972 32.2311 52.5805 32.7443 52.7472 33.2102C52.9176 33.6761 53.1771 34.0492 53.5256 34.3295C53.8778 34.6098 54.321 34.75 54.8551 34.75ZM64.473 39.4545C63.7798 39.4545 63.1832 39.3636 62.6832 39.1818C62.187 39 61.7817 38.7595 61.4673 38.4602C61.1529 38.161 60.9181 37.8333 60.7628 37.4773L62.223 36.875C62.3253 37.0417 62.4616 37.2178 62.6321 37.4034C62.8063 37.5928 63.0412 37.7538 63.3366 37.8864C63.6359 38.0189 64.0204 38.0852 64.4901 38.0852C65.134 38.0852 65.6662 37.928 66.0866 37.6136C66.5071 37.303 66.7173 36.8068 66.7173 36.125V34.4091H66.6094C66.5071 34.5947 66.3594 34.8011 66.1662 35.0284C65.9768 35.2557 65.7154 35.4527 65.3821 35.6193C65.0488 35.786 64.6151 35.8693 64.081 35.8693C63.3916 35.8693 62.7704 35.7083 62.2173 35.3864C61.6681 35.0606 61.2325 34.5814 60.9105 33.9489C60.5923 33.3125 60.4332 32.5303 60.4332 31.6023C60.4332 30.6742 60.5904 29.8788 60.9048 29.2159C61.223 28.553 61.6586 28.0455 62.2116 27.6932C62.7647 27.3371 63.3916 27.1591 64.0923 27.1591C64.634 27.1591 65.0715 27.25 65.4048 27.4318C65.7382 27.6098 65.9976 27.8182 66.1832 28.0568C66.3726 28.2955 66.5185 28.5057 66.6207 28.6875H66.7457V27.2727H68.4105V36.1932C68.4105 36.9432 68.2363 37.5587 67.8878 38.0398C67.5393 38.5208 67.0677 38.8769 66.473 39.108C65.8821 39.339 65.2154 39.4545 64.473 39.4545ZM64.456 34.4602C64.9446 34.4602 65.3575 34.3466 65.6946 34.1193C66.0355 33.8883 66.2931 33.5587 66.4673 33.1307C66.6454 32.6989 66.7344 32.1818 66.7344 31.5795C66.7344 30.9924 66.6473 30.4754 66.473 30.0284C66.2988 29.5814 66.0431 29.233 65.706 28.983C65.3688 28.7292 64.9522 28.6023 64.456 28.6023C63.9446 28.6023 63.5185 28.7348 63.1776 29C62.8366 29.2614 62.5791 29.6174 62.4048 30.0682C62.2344 30.5189 62.1491 31.0227 62.1491 31.5795C62.1491 32.1515 62.2363 32.6534 62.4105 33.0852C62.5848 33.517 62.8423 33.8542 63.1832 34.0966C63.5279 34.339 63.9522 34.4602 64.456 34.4602ZM74.3651 36.1761C73.5469 36.1761 72.8329 35.9886 72.223 35.6136C71.6132 35.2386 71.1397 34.714 70.8026 34.0398C70.4654 33.3655 70.2969 32.5777 70.2969 31.6761C70.2969 30.7708 70.4654 29.9792 70.8026 29.3011C71.1397 28.6231 71.6132 28.0966 72.223 27.7216C72.8329 27.3466 73.5469 27.1591 74.3651 27.1591C75.1832 27.1591 75.8973 27.3466 76.5071 27.7216C77.117 28.0966 77.5904 28.6231 77.9276 29.3011C78.2647 29.9792 78.4332 30.7708 78.4332 31.6761C78.4332 32.5777 78.2647 33.3655 77.9276 34.0398C77.5904 34.714 77.117 35.2386 76.5071 35.6136C75.8973 35.9886 75.1832 36.1761 74.3651 36.1761ZM74.3707 34.75C74.901 34.75 75.3404 34.6098 75.6889 34.3295C76.0374 34.0492 76.295 33.6761 76.4616 33.2102C76.6321 32.7443 76.7173 32.2311 76.7173 31.6705C76.7173 31.1136 76.6321 30.6023 76.4616 30.1364C76.295 29.6667 76.0374 29.2898 75.6889 29.0057C75.3404 28.7216 74.901 28.5795 74.3707 28.5795C73.8366 28.5795 73.3935 28.7216 73.0412 29.0057C72.6927 29.2898 72.4332 29.6667 72.2628 30.1364C72.0961 30.6023 72.0128 31.1136 72.0128 31.6705C72.0128 32.2311 72.0961 32.7443 72.2628 33.2102C72.4332 33.6761 72.6927 34.0492 73.0412 34.3295C73.3935 34.6098 73.8366 34.75 74.3707 34.75Z" fill="white"/>
<rect x="0.5" y="0.5" width="119" height="59" rx="4.5" stroke="white"/>
</svg>
