<svg width="165" height="52" viewBox="0 0 165 52" fill="none" xmlns="http://www.w3.org/2000/svg">
<path d="M2.60697 0.0464114V48.2791H9.8579V30.8395C10.5185 30.8395 11.0594 30.8523 11.6034 30.8395C15.0297 30.7525 18.4917 30.9393 21.8759 30.5014C27.7342 29.7447 31.4585 25.681 32.1969 19.8431C32.5693 16.9064 32.5304 14.002 31.6366 11.149C30.1825 6.52187 26.8858 3.83316 22.2094 3.19237C18.5791 2.69327 14.8549 2.84461 11.1727 2.72869C9.98096 2.69005 8.7892 2.72225 7.53268 2.72225V20.8574C7.863 20.8574 8.1739 20.8574 8.48479 20.8574C11.3023 20.8574 14.1197 20.8638 16.9372 20.851C17.4521 20.851 17.9703 20.7866 18.4787 20.7125C21.6654 20.2424 23.1777 17.0063 21.5099 14.2306C20.9205 13.2453 19.949 12.8524 18.8932 12.8138C16.8919 12.7397 14.8872 12.7912 12.7531 12.7912V18.6259H10.0911V10.3086C10.3016 10.2829 10.5153 10.2313 10.729 10.2313C13.2227 10.2281 15.7163 10.1991 18.2099 10.2378C22.5397 10.3086 24.8196 12.8138 24.5217 17.1157C24.2497 21.0345 22.2483 23.2145 18.2941 23.3722C13.906 23.5461 9.50814 23.4109 5.04877 23.4109V0.0818318C5.23013 0.0625117 5.41472 0.0206519 5.59607 0.0206519C10.1299 0.0206519 14.6638 -0.0469694 19.1944 0.0625113C22.4005 0.139792 25.4673 0.928697 28.2103 2.68039C31.2609 4.62528 33.2364 7.37196 34.1691 10.8399C35.3965 15.4091 35.309 19.959 33.6056 24.393C31.5913 29.6352 27.5918 32.4817 22.0896 33.2094C19.9522 33.4928 17.7662 33.4026 15.5997 33.4638C14.6346 33.4895 13.6663 33.467 12.5814 33.467V51H0V0.0464114H2.60697Z" fill="url(#paint0_linear_108_7)"/>
<path d="M7.47762 46.6079H5.03258V25.9386C5.41796 25.9386 5.76124 25.9386 6.10775 25.9386C10.1526 25.9289 14.2007 25.9547 18.2455 25.8871C19.3952 25.8677 20.5805 25.7035 21.6815 25.3783C25.3216 24.2996 27.1546 21.7622 27.2873 17.6245C27.3262 16.417 27.2031 15.1741 26.9505 13.9891C26.1701 10.3086 23.8254 8.22526 20.072 7.86784C18.6277 7.72938 17.1639 7.78734 15.7066 7.77768C13.8639 7.7648 12.0212 7.77768 10.1008 7.77768V5.25318C10.4052 5.2403 10.7452 5.21132 11.0885 5.21132C13.7441 5.21132 16.3964 5.21132 19.0519 5.21132C25.218 5.21776 29.3859 9.05281 29.8425 15.1676C30.0498 17.924 29.9008 20.6352 28.5763 23.1597C26.9214 26.3024 24.091 27.7579 20.7521 28.1829C18.2941 28.4953 15.7843 28.4019 13.2972 28.4502C11.3962 28.4856 9.49519 28.4566 7.47762 28.4566V46.6176V46.6079Z" fill="url(#paint1_linear_108_7)"/>
<path d="M21.654 51H18.664V39.3H21.654V40.444C22.2953 39.5427 23.188 39.092 24.332 39.092C25.1467 39.092 25.7533 39.2393 26.152 39.534L25.086 42.342C24.5833 42.0473 24.0807 41.9 23.578 41.9C22.7113 41.9 22.07 42.316 21.654 43.148V51Z" fill="white"/>
<path d="M28.8694 49.57C27.7081 48.4087 27.1274 46.9353 27.1274 45.15C27.1274 43.3647 27.7081 41.9 28.8694 40.756C30.0307 39.5947 31.5734 39.014 33.4974 39.014C35.4041 39.014 36.9381 39.5947 38.0994 40.756C39.2781 41.9 39.8674 43.3647 39.8674 45.15C39.8674 46.918 39.2781 48.3913 38.0994 49.57C36.9207 50.714 35.3867 51.286 33.4974 51.286C31.5734 51.286 30.0307 50.714 28.8694 49.57ZM31.2354 42.758C30.6287 43.382 30.3254 44.1793 30.3254 45.15C30.3254 46.1207 30.6201 46.9267 31.2094 47.568C31.8161 48.192 32.5787 48.504 33.4974 48.504C34.4334 48.504 35.1961 48.192 35.7854 47.568C36.3921 46.944 36.6954 46.138 36.6954 45.15C36.6954 44.1793 36.3921 43.382 35.7854 42.758C35.1787 42.134 34.4161 41.822 33.4974 41.822C32.5961 41.822 31.8421 42.134 31.2354 42.758Z" fill="white"/>
<path d="M60.213 43.356V51H57.223V44.136C57.223 42.6453 56.5557 41.9 55.221 41.9C54.077 41.9 53.271 42.3507 52.803 43.252C52.803 43.2867 52.803 43.4253 52.803 43.668C52.8204 43.8933 52.829 44.0407 52.829 44.11V51H49.839V43.928C49.839 43.304 49.6657 42.81 49.319 42.446C48.9897 42.082 48.513 41.9 47.889 41.9C46.797 41.9 45.9823 42.316 45.445 43.148V51H42.455V39.3H45.445V40.6C46.3463 39.5947 47.5683 39.092 49.111 39.092C49.9603 39.092 50.6797 39.2653 51.269 39.612C51.8757 39.9413 52.2917 40.392 52.517 40.964C53.4704 39.716 54.7877 39.092 56.469 39.092C58.965 39.092 60.213 40.5133 60.213 43.356Z" fill="white"/>
<path d="M64.3159 50.974V32.826C66.7253 32.7567 68.3893 32.722 69.3079 32.722C71.2839 32.722 72.7486 33.1207 73.7019 33.918C74.6726 34.698 75.1579 35.7987 75.1579 37.22C75.1579 38.2773 74.8806 39.1613 74.3259 39.872C73.7713 40.5827 73.0086 41.1027 72.0379 41.432V41.484C73.2166 41.6747 74.1353 42.1427 74.7939 42.888C75.4699 43.6333 75.8079 44.604 75.8079 45.8C75.8079 47.5333 75.2186 48.8507 74.0399 49.752C72.8613 50.636 71.2493 51.078 69.2039 51.078C67.2106 51.078 65.5813 51.0433 64.3159 50.974ZM69.4639 42.706H66.5259V48.894C67.2366 48.9633 68.1726 48.998 69.3339 48.998C70.7033 48.998 71.7519 48.7207 72.4799 48.166C73.2253 47.594 73.5979 46.762 73.5979 45.67C73.5979 44.7167 73.2339 43.9887 72.5059 43.486C71.7953 42.966 70.7813 42.706 69.4639 42.706ZM69.2559 34.802C68.7359 34.802 67.8259 34.828 66.5259 34.88V40.756H69.4379C70.4606 40.756 71.3013 40.4873 71.9599 39.95C72.6186 39.3953 72.9479 38.65 72.9479 37.714C72.9479 35.7727 71.7173 34.802 69.2559 34.802Z" fill="white"/>
<path d="M88.7348 48.088L89.3848 49.726C88.2581 50.7487 86.7935 51.26 84.9908 51.26C83.0841 51.26 81.5675 50.7053 80.4408 49.596C79.2968 48.4867 78.7248 47.0047 78.7248 45.15C78.7248 43.3993 79.2621 41.9433 80.3368 40.782C81.3941 39.6207 82.8675 39.04 84.7568 39.04C86.3168 39.04 87.6081 39.5427 88.6308 40.548C89.6708 41.536 90.1908 42.8187 90.1908 44.396C90.1908 44.8987 90.1475 45.3667 90.0608 45.8H81.0648C81.1515 46.892 81.5588 47.75 82.2868 48.374C83.0321 48.998 83.9855 49.31 85.1468 49.31C86.6721 49.31 87.8681 48.9027 88.7348 48.088ZM84.6528 40.99C83.6301 40.99 82.7808 41.276 82.1048 41.848C81.4461 42.42 81.0561 43.174 80.9348 44.11H88.0328C87.9808 43.1393 87.6515 42.3767 87.0448 41.822C86.4555 41.2673 85.6581 40.99 84.6528 40.99Z" fill="white"/>
<path d="M92.7526 46.554V36.05H94.8326V39.3H99.1226V41.25H94.8326V46.346C94.8326 48.2873 95.526 49.258 96.9126 49.258C97.5886 49.258 98.204 49.0413 98.7586 48.608L99.4086 50.22C98.594 50.8787 97.5973 51.208 96.4186 51.208C95.1533 51.208 94.226 50.8267 93.6366 50.064C93.0473 49.3013 92.7526 48.1313 92.7526 46.554Z" fill="white"/>
<path d="M102.658 49.544C101.514 48.3653 100.942 46.9007 100.942 45.15C100.942 43.382 101.514 41.926 102.658 40.782C103.819 39.6207 105.327 39.04 107.182 39.04C109.036 39.04 110.536 39.6207 111.68 40.782C112.841 41.926 113.422 43.382 113.422 45.15C113.422 46.918 112.841 48.3827 111.68 49.544C110.536 50.688 109.036 51.26 107.182 51.26C105.344 51.26 103.836 50.688 102.658 49.544ZM104.296 42.16C103.533 42.9227 103.152 43.9193 103.152 45.15C103.152 46.3807 103.524 47.3773 104.27 48.14C105.032 48.92 106.003 49.31 107.182 49.31C108.36 49.31 109.322 48.9287 110.068 48.166C110.83 47.386 111.212 46.3807 111.212 45.15C111.212 43.954 110.83 42.9573 110.068 42.16C109.322 41.38 108.36 40.99 107.182 40.99C106.003 40.99 105.041 41.38 104.296 42.16Z" fill="white"/>
<path d="M118.503 51H116.423V39.3H118.503V40.73C118.936 40.2447 119.499 39.8547 120.193 39.56C120.903 39.248 121.614 39.092 122.325 39.092C125.566 39.092 127.187 40.808 127.187 44.24V51H125.107V44.63C125.107 42.238 124.006 41.042 121.805 41.042C120.487 41.042 119.387 41.5447 118.503 42.55V51Z" fill="white"/>
<path d="M133.76 44.006V51H131.55V32.8C132.278 32.8 133.05 32.7913 133.864 32.774C134.679 32.7567 135.494 32.748 136.308 32.748C138.7 32.748 140.416 33.2853 141.456 34.36C142.514 35.4173 143.042 36.7607 143.042 38.39C143.042 39.9673 142.47 41.3193 141.326 42.446C140.217 43.5553 138.605 44.11 136.49 44.11C135.381 44.11 134.471 44.0753 133.76 44.006ZM136.516 34.828C136.204 34.828 135.286 34.8453 133.76 34.88V41.9C134.852 41.9867 135.736 42.03 136.412 42.03C137.747 42.03 138.796 41.7093 139.558 41.068C140.321 40.4093 140.702 39.508 140.702 38.364C140.702 37.2373 140.347 36.3707 139.636 35.764C138.943 35.14 137.903 34.828 136.516 34.828Z" fill="white"/>
<path d="M145.695 49.544C144.551 48.3653 143.979 46.9007 143.979 45.15C143.979 43.382 144.551 41.926 145.695 40.782C146.856 39.6207 148.364 39.04 150.219 39.04C152.073 39.04 153.573 39.6207 154.717 40.782C155.878 41.926 156.459 43.382 156.459 45.15C156.459 46.918 155.878 48.3827 154.717 49.544C153.573 50.688 152.073 51.26 150.219 51.26C148.381 51.26 146.873 50.688 145.695 49.544ZM147.333 42.16C146.57 42.9227 146.189 43.9193 146.189 45.15C146.189 46.3807 146.561 47.3773 147.307 48.14C148.069 48.92 149.04 49.31 150.219 49.31C151.397 49.31 152.359 48.9287 153.105 48.166C153.867 47.386 154.249 46.3807 154.249 45.15C154.249 43.954 153.867 42.9573 153.105 42.16C152.359 41.38 151.397 40.99 150.219 40.99C149.04 40.99 148.078 41.38 147.333 42.16Z" fill="white"/>
<path d="M159.46 47.88V32.8H161.54V46.944C161.54 48.4867 161.999 49.258 162.918 49.258C163.369 49.258 163.863 49.0847 164.4 48.738L164.868 50.324C164.123 50.9133 163.204 51.208 162.112 51.208C160.344 51.208 159.46 50.0987 159.46 47.88Z" fill="white"/>
<defs>
<linearGradient id="paint0_linear_108_7" x1="82.4339" y1="0" x2="82.4339" y2="51.286" gradientUnits="userSpaceOnUse">
<stop stop-color="#FF2A2A" stop-opacity="0.89"/>
<stop offset="1" stop-color="#FFC32A"/>
</linearGradient>
<linearGradient id="paint1_linear_108_7" x1="82.4339" y1="0" x2="82.4339" y2="51.286" gradientUnits="userSpaceOnUse">
<stop stop-color="#FF2A2A" stop-opacity="0.89"/>
<stop offset="1" stop-color="#FFC32A"/>
</linearGradient>
</defs>
</svg>
