<svg width="33" height="48" viewBox="0 0 33 48" fill="none" xmlns="http://www.w3.org/2000/svg">
<path d="M2.45362 0.0436813V45.4391H9.27802V29.0254C9.89981 29.0254 10.4088 29.0375 10.9209 29.0254C14.1456 28.9435 17.4039 29.1193 20.589 28.7072C26.1028 27.995 29.608 24.1703 30.3029 18.6759C30.6534 15.9119 30.6169 13.1783 29.7756 10.4932C28.4071 6.13823 25.3043 3.60768 20.903 3.00459C17.4862 2.53484 13.981 2.67728 10.5155 2.56818C9.39385 2.53181 8.27219 2.56211 7.08958 2.56211V19.6305C7.40047 19.6305 7.69308 19.6305 7.98568 19.6305C10.6374 19.6305 13.2892 19.6366 15.9409 19.6244C16.4255 19.6244 16.9132 19.5638 17.3917 19.4941C20.3909 19.0516 21.8143 16.0059 20.2446 13.3935C19.6899 12.4661 18.7755 12.0964 17.7819 12.06C15.8982 11.9903 14.0115 12.0388 12.0029 12.0388V17.5303H9.49748V9.70222C9.6956 9.67798 9.89676 9.62949 10.0979 9.62949C12.4449 9.62646 14.7918 9.59918 17.1387 9.63555C21.2139 9.70222 23.3596 12.06 23.0792 16.1089C22.8232 19.7972 20.9396 21.8489 17.218 21.9974C13.088 22.161 8.94884 22.0338 4.75179 22.0338V0.0770182C4.92247 0.0588345 5.09621 0.0194371 5.26689 0.0194371C9.53405 0.0194371 13.8012 -0.0442065 18.0653 0.0588341C21.0828 0.131569 23.9692 0.874068 26.5509 2.52272C29.4221 4.3532 31.2813 6.93831 32.1591 10.2023C33.3143 14.5027 33.232 18.785 31.6288 22.9581C29.733 27.8919 25.9687 30.571 20.7902 31.2559C18.7786 31.5226 16.7212 31.4377 14.6821 31.4953C13.7738 31.5196 12.8624 31.4983 11.8414 31.4983V48H0V0.0436813H2.45362Z" fill="url(#paint0_linear_109_18)"/>
<path d="M7.03776 43.8663H4.73654V24.4128C5.09925 24.4128 5.42234 24.4128 5.74847 24.4128C9.55539 24.4037 13.3654 24.4279 17.1723 24.3643C18.2543 24.3461 19.3699 24.1916 20.4062 23.8855C23.8321 22.8702 25.5572 20.4821 25.6822 16.5878C25.7188 15.4513 25.603 14.2815 25.3652 13.1662C24.6306 9.70223 22.4239 7.74142 18.8913 7.40502C17.5319 7.27471 16.1542 7.32926 14.7827 7.32017C13.0484 7.30805 11.3141 7.32017 9.50662 7.32017V4.94417C9.79313 4.93205 10.1132 4.90477 10.4363 4.90477C12.9356 4.90477 15.4319 4.90477 17.9312 4.90477C23.7346 4.91084 27.6573 8.52029 28.0871 14.2754C28.2821 16.8696 28.1419 19.4214 26.8953 21.7974C25.3378 24.7552 22.6739 26.1251 19.5314 26.5251C17.218 26.8191 14.8558 26.7312 12.515 26.7767C10.7258 26.81 8.93665 26.7827 7.03776 26.7827V43.8753V43.8663Z" fill="url(#paint1_linear_109_18)"/>
<defs>
<linearGradient id="paint0_linear_109_18" x1="16.4706" y1="0" x2="16.4706" y2="48" gradientUnits="userSpaceOnUse">
<stop stop-color="#FF2A2A" stop-opacity="0.89"/>
<stop offset="1" stop-color="#FFC32A"/>
</linearGradient>
<linearGradient id="paint1_linear_109_18" x1="16.4706" y1="0" x2="16.4706" y2="48" gradientUnits="userSpaceOnUse">
<stop stop-color="#FF2A2A" stop-opacity="0.89"/>
<stop offset="1" stop-color="#FFC32A"/>
</linearGradient>
</defs>
</svg>
