<svg width="51" height="51" viewBox="0 0 51 51" fill="none" xmlns="http://www.w3.org/2000/svg">
<path d="M7.65 51V43.35H0V38.25H7.65V28.05H0V22.95H7.65V12.75H0V7.65H7.65V0H12.75V7.65H22.95V0H28.05V7.65H38.25V0H43.35V7.65H51V12.75H43.35V22.95H51V28.05H43.35V38.25H51V43.35H43.35V51H38.25V43.35H28.05V51H22.95V43.35H12.75V51H7.65ZM12.75 38.25H22.95V28.05H12.75V38.25ZM28.05 38.25H38.25V28.05H28.05V38.25ZM12.75 22.95H22.95V12.75H12.75V22.95ZM28.05 22.95H38.25V12.75H28.05V22.95Z" fill="#FFC32A"/>
</svg>
