<svg width="58" height="43" viewBox="0 0 58 43" fill="none" xmlns="http://www.w3.org/2000/svg">
<path d="M32.8665 30.273C33.5332 30.273 34.1291 30.273 34.8006 30.273C34.8006 30.0185 34.8006 29.782 34.8006 29.5454C34.8006 23.7654 34.8006 17.9838 34.8006 12.2037C34.8006 11.0259 35.0647 10.7534 36.2033 10.7518C40.7317 10.7518 45.2618 10.7665 49.7902 10.7436C51.1558 10.7371 52.122 11.295 52.8097 12.4811C54.2365 14.9347 55.6923 17.372 57.1529 19.806C57.723 20.7539 58.0032 21.7588 58 22.873C57.9839 26.883 57.9951 30.893 57.9935 34.9029C57.9919 36.9275 56.8099 38.1119 54.7937 38.1151C53.5891 38.1168 52.3829 38.1151 51.1928 38.1151C50.1058 41.4481 48.0864 43.0909 45.2086 42.993C42.9202 42.9147 40.3903 41.3681 39.7091 38.1478C36.1389 38.1478 32.5622 38.1478 28.9259 38.1478C28.5813 39.8085 27.7342 41.1658 26.2881 42.0957C25.2381 42.7711 24.0802 43.0599 22.8386 42.9897C20.2427 42.8446 18.3537 41.1463 17.4631 38.1429C16.7916 38.1429 16.1136 38.1429 15.397 38.1429C15.0604 39.7612 14.2568 41.0794 12.8896 42.0093C11.8187 42.7369 10.6318 43.055 9.34513 42.9914C6.72501 42.8641 4.69592 41.0516 3.94548 38.1151C3.34963 38.1151 2.73285 38.1184 2.11446 38.1151C0.806821 38.1053 0.0161104 37.3076 0.0145 35.9796C0.00966879 33.5375 0.0112792 31.0953 0.0145 28.6514C0.0161104 27.6922 0.333365 27.3675 1.28028 27.3675C8.88939 27.3659 16.4969 27.3626 24.106 27.3773C24.5682 27.3789 24.8806 27.2321 25.2059 26.9091C27.0466 25.0787 26.185 25.4523 28.7407 25.4147C29.7263 25.4001 30.7134 25.4066 31.699 25.4147C32.5235 25.4213 32.8649 25.7688 32.8698 26.6106C32.8714 27.808 32.8665 29.0071 32.8665 30.273ZM36.775 12.7356C36.775 20.5679 36.775 28.348 36.775 36.1346C37.7783 36.1346 38.7397 36.1346 39.6914 36.1346C40.5433 33.159 42.4661 31.4297 45.0653 31.2878C46.3069 31.2209 47.4632 31.5064 48.5131 32.1818C49.9609 33.1133 50.8031 34.4706 51.1574 36.1607C52.494 36.1607 53.7807 36.1738 55.0674 36.1542C55.6697 36.1444 56.0224 35.761 56.0546 35.1476C56.0691 34.8507 56.0578 34.5522 56.0578 34.1884C55.0578 34.1884 54.1238 34.1884 53.1897 34.1884C53.1897 33.5195 53.1897 32.9159 53.1897 32.247C54.1495 32.247 55.0835 32.247 56.0176 32.247C56.0176 31.5618 56.0176 30.9452 56.0176 30.2975C54.7293 30.2975 53.4828 30.3073 52.2364 30.2942C51.312 30.2845 50.4843 29.7494 50.3731 28.8733C50.2459 27.8798 50.2459 26.8422 50.3764 25.8487C50.4939 24.9612 51.304 24.4473 52.2444 24.4375C53.5037 24.4261 54.7647 24.4343 56.0111 24.4343C56.0111 23.736 56.0111 23.1194 56.0111 22.4782C55.7213 22.4782 55.4813 22.4782 55.2414 22.4782C50.13 22.4782 45.0186 22.4799 39.9056 22.4766C38.9973 22.4766 38.6672 22.1438 38.6656 21.2286C38.6624 18.6233 38.664 16.0196 38.664 13.4142C38.664 13.1972 38.664 12.9786 38.664 12.7339C38.0085 12.7356 37.4127 12.7356 36.775 12.7356ZM17.4825 36.1346C18.1524 32.9746 20.605 31.4199 22.8741 31.2878C24.1608 31.2127 25.3476 31.5439 26.4185 32.2715C27.7858 33.2014 28.5877 34.5195 28.9227 36.1118C29.6184 36.1118 30.2706 36.1118 30.9019 36.1118C30.9019 33.1785 30.9019 30.2959 30.9019 27.3675C30.3479 27.3675 29.8181 27.4311 29.3108 27.3545C27.9999 27.1587 26.9693 27.5568 26.1963 28.6547C25.813 29.1979 25.2719 29.335 24.6133 29.3334C17.3053 29.3138 9.99895 29.3219 2.69098 29.3219C2.45748 29.3219 2.22235 29.3219 1.99046 29.3219C1.99046 31.6418 1.99046 33.8882 1.99046 36.1346C2.67326 36.1346 3.31259 36.1346 3.94387 36.1346C4.79899 33.0676 6.8764 31.2992 9.62212 31.2796C12.4323 31.2584 14.4775 32.9648 15.4195 36.1363C16.0862 36.1346 16.7658 36.1346 17.4825 36.1346ZM40.6254 20.4749C45.5226 20.4749 50.3715 20.4749 55.2929 20.4749C53.8242 18.0017 52.4151 15.5872 50.9432 13.2136C50.7677 12.9297 50.2395 12.7339 49.8707 12.729C46.9929 12.6899 44.1152 12.7078 41.2374 12.7078C41.0425 12.7078 40.8477 12.7078 40.6254 12.7078C40.6254 15.3278 40.6254 17.8842 40.6254 20.4749ZM5.80871 37.1053C5.79743 39.2685 7.527 41.0419 9.65594 41.0451C11.7945 41.05 13.5338 39.2979 13.537 37.1363C13.5402 35.0057 11.8267 33.2503 9.71874 33.2275C7.58013 33.2079 5.82159 34.9519 5.80871 37.1053ZM27.0675 37.1494C27.0772 34.991 25.338 33.2308 23.1994 33.2291C21.0897 33.2275 19.3537 34.9649 19.3376 37.0939C19.3215 39.2587 21.0463 41.037 23.1736 41.0467C25.3138 41.0549 27.0595 39.3077 27.0675 37.1494ZM49.2942 37.1461C49.3022 34.9894 47.5614 33.2291 45.4228 33.2291C43.3132 33.2291 41.5804 34.9682 41.5643 37.0971C41.5482 39.262 43.2761 41.0386 45.4035 41.0451C47.5437 41.0533 49.2861 39.3061 49.2942 37.1461ZM52.2219 28.3007C53.5215 28.3007 54.7744 28.3007 56.0127 28.3007C56.0127 27.6416 56.0127 27.0233 56.0127 26.4197C54.726 26.4197 53.4876 26.4197 52.2219 26.4197C52.2219 27.0527 52.2219 27.6547 52.2219 28.3007ZM34.77 36.1346C34.77 34.8132 34.77 33.5603 34.77 32.2878C34.1307 32.2878 33.522 32.2878 32.9068 32.2878C32.9068 33.5913 32.9068 34.8573 32.9068 36.1346C33.5429 36.1346 34.1388 36.1346 34.77 36.1346Z" fill="#FFC32A"/>
<path d="M32.8665 12.7078C32.8665 15.2104 32.8521 17.7146 32.8762 20.2171C32.8827 20.9105 32.6057 21.3036 31.984 21.5598C27.8212 23.2809 23.5665 24.6692 19.0864 25.2483C16.1329 25.6301 13.2262 25.2908 10.3436 24.6398C7.09862 23.9073 3.96157 22.8404 0.89055 21.5549C0.264107 21.2922 -0.00160312 20.9056 7.27347e-06 20.2139C0.0161112 15.2071 0.0161128 10.2004 0.00161924 5.19363C8.84617e-06 4.53944 0.223854 4.13649 0.837414 3.88036C5.01317 2.13151 9.29198 0.756244 13.7898 0.164048C16.9494 -0.251957 20.051 0.170576 23.1221 0.899808C26.1222 1.61273 29.0258 2.62419 31.8729 3.80858C32.7603 4.17728 32.8649 4.34531 32.8665 5.31762C32.8682 7.78265 32.8665 10.2444 32.8665 12.7078ZM13.5547 23.2189C15.3938 23.5337 17.1974 23.5191 19.0027 23.2825C22.9787 22.7621 26.7599 21.532 30.4799 20.0736C30.8487 19.9284 30.9437 19.7424 30.9437 19.3639C30.9309 14.9265 30.9276 10.4875 30.9486 6.05011C30.9502 5.61453 30.7907 5.4465 30.4236 5.32251C28.5394 4.68138 26.6778 3.9603 24.7743 3.38279C21.8563 2.49857 18.8835 1.88027 15.8109 1.97163C15.0588 1.99447 14.31 2.09725 13.5547 2.1625C13.5547 9.22807 13.5547 16.1876 13.5547 23.2189ZM7.7605 21.9741C9.03915 22.2923 10.2904 22.6022 11.5771 22.922C11.5771 16.0603 11.5771 9.31616 11.5771 2.48063C10.2711 2.80854 9.015 3.12503 7.7605 3.44152C7.7605 9.63755 7.7605 15.7553 7.7605 21.9741ZM5.78938 4.0745C4.46885 4.57044 3.20308 5.04681 1.94375 5.51991C1.94375 9.91815 1.94375 14.2315 1.94375 18.5466C1.94375 19.8745 1.94053 19.8843 3.17087 20.3623C4.02277 20.6935 4.88595 20.9937 5.79099 21.3248C5.78938 15.5383 5.78938 9.86105 5.78938 4.0745Z" fill="#FFC32A"/>
<path d="M34.77 36.1346C34.1388 36.1346 33.5429 36.1346 32.9068 36.1346C32.9068 34.8573 32.9068 33.5913 32.9068 32.2878C33.5204 32.2878 34.1291 32.2878 34.77 32.2878C34.77 33.5619 34.77 34.8132 34.77 36.1346Z" fill="#FFC32A"/>
<path d="M13.5547 23.2189C13.5547 16.1876 13.5547 9.22807 13.5547 2.16414C14.3084 2.09725 15.0588 1.99447 15.8109 1.97326C18.8835 1.88191 21.8563 2.5002 24.7743 3.38442C26.6778 3.9603 28.5378 4.68137 30.4236 5.32414C30.7907 5.44976 30.9502 5.61617 30.9486 6.05175C30.9276 10.4891 30.9309 14.9282 30.9437 19.3655C30.9454 19.744 30.8487 19.93 30.4799 20.0752C26.7599 21.5337 22.9771 22.7637 19.0027 23.2841C17.1974 23.5191 15.3938 23.5337 13.5547 23.2189Z" fill="#FFC32A"/>
<path d="M8.74283 36.1901C9.36283 36.1901 9.95707 36.1901 10.5964 36.1901C10.5964 36.8035 10.5964 37.4202 10.5964 38.076C9.99411 38.076 9.38538 38.076 8.74283 38.076C8.74283 37.4642 8.74283 36.8639 8.74283 36.1901Z" fill="#FFC32A"/>
<path d="M24.143 36.1934C24.143 36.8263 24.143 37.4283 24.143 38.0727C23.5295 38.0727 22.9208 38.0727 22.275 38.0727C22.275 37.4577 22.275 36.841 22.275 36.1934C22.8853 36.1934 23.4796 36.1934 24.143 36.1934Z" fill="#FFC32A"/>
<path d="M44.4759 38.076C44.4759 37.4348 44.4759 36.8475 44.4759 36.2113C45.0878 36.2113 45.6982 36.2113 46.352 36.2113C46.352 36.8051 46.352 37.4202 46.352 38.076C45.7481 38.076 45.1394 38.076 44.4759 38.076Z" fill="#FFC32A"/>
</svg>
