<svg width="63" height="55" viewBox="0 0 63 55" fill="none" xmlns="http://www.w3.org/2000/svg">
<path d="M32.3273 0.170528C32.0659 0.058016 31.7844 0 31.5 0C31.2156 0 30.9341 0.058016 30.6727 0.170528L1.27679 12.8195C0.898029 12.9815 0.575056 13.2517 0.348044 13.5966C0.121033 13.9414 0 14.3457 0 14.759C0 15.1724 0.121033 15.5766 0.348044 15.9215C0.575056 16.2663 0.898029 16.5365 1.27679 16.6985C12.7566 21.6383 19.1929 24.4078 30.6727 29.3475C30.9341 29.46 31.2156 29.518 31.5 29.518C31.7844 29.518 32.0659 29.46 32.3273 29.3475L61.7232 16.6985C62.102 16.5365 62.4249 16.2663 62.652 15.9215C62.879 15.5766 63 15.1724 63 14.759C63 14.3457 62.879 13.9414 62.652 13.5966C62.4249 13.2517 62.102 12.9815 61.7232 12.8195L32.3273 0.170528Z" fill="#FFC32A"/>
<path d="M31.5002 37.7637L2.93152 25.4688L1.27695 29.3479L31.5002 42.351L61.7234 29.3479L60.0688 25.4688L31.5002 37.7637Z" fill="#FFC32A"/>
<path d="M2.93152 38.1178L1.27695 41.9968L31.5002 55L61.7234 41.9968L60.0688 38.1178L31.5002 50.4126L2.93152 38.1178Z" fill="#FFC32A"/>
</svg>
