<svg width="51" height="51" viewBox="0 0 51 51" fill="none" xmlns="http://www.w3.org/2000/svg">
<path fill-rule="evenodd" clip-rule="evenodd" d="M34.6224 16.1503C34.9812 16.0576 35.3621 16.1091 35.6834 16.294C36.0046 16.4789 36.2406 16.7823 36.3408 17.1391C36.8112 18.8232 36.8857 20.5933 36.5582 22.3109C36.2307 24.0285 35.5103 25.647 34.4532 27.0399C33.3961 28.4327 32.0311 29.5621 30.4649 30.3396C28.8988 31.1171 27.1739 31.5217 25.4254 31.5217C23.6768 31.5217 21.952 31.1171 20.3858 30.3396C18.8197 29.5621 17.4546 28.4327 16.3976 27.0399C15.3405 25.647 14.62 24.0285 14.2926 22.3109C13.9651 20.5933 14.0395 18.8232 14.51 17.1391C14.6101 16.7823 14.8461 16.4789 15.1674 16.294C15.4886 16.1091 15.8695 16.0576 16.2284 16.1503C21.5012 17.5103 29.3495 17.5103 34.6224 16.1503ZM16.982 19.2273C16.8466 20.417 16.9641 21.6218 17.3267 22.763C17.6893 23.9041 18.289 24.9557 19.0863 25.849C19.8836 26.7422 20.8607 27.457 21.9535 27.9463C23.0463 28.4357 24.2301 28.6887 25.4275 28.6887C26.6249 28.6887 27.8087 28.4357 28.9015 27.9463C29.9943 27.457 30.9714 26.7422 31.7687 25.849C32.566 24.9557 33.1657 23.9041 33.5283 22.763C33.8909 21.6218 34.0084 20.417 33.873 19.2273C28.7489 20.2614 22.1047 20.2614 16.982 19.2273Z" fill="#FFC32A"/>
<path fill-rule="evenodd" clip-rule="evenodd" d="M18.4167 31.8608C9.93508 33.3413 0 37.1209 0 42.5V51H51V42.5C51 37.1209 41.0649 33.3413 32.5833 31.8608V38.25H18.4167V31.8608ZM26.9167 0.0821668V6.34667C26.9167 6.72239 26.7674 7.08273 26.5017 7.3484C26.2361 7.61408 25.8757 7.76333 25.5 7.76333C25.1243 7.76333 24.7639 7.61408 24.4983 7.3484C24.2326 7.08273 24.0833 6.72239 24.0833 6.34667V0C22.6208 0.0773039 21.1827 0.408053 19.8333 0.9775V9.18C19.8333 9.55572 19.6841 9.91606 19.4184 10.1817C19.1527 10.4474 18.7924 10.5967 18.4167 10.5967C18.0409 10.5967 17.6806 10.4474 17.4149 10.1817C17.1493 9.91606 17 9.55572 17 9.18V2.74125C15.0592 4.41008 13.94 6.57475 13.5844 8.47167C13.5722 8.53763 13.5609 8.60375 13.5504 8.67L13.5221 8.69833C13.396 9.58942 13.4654 10.3232 13.6468 10.8276C13.7629 11.1785 13.7373 11.5609 13.5754 11.8932C13.4134 12.2255 13.128 12.4814 12.7801 12.6062C12.4322 12.731 12.0492 12.7148 11.713 12.5612C11.3768 12.4076 11.114 12.1286 10.9806 11.7838C10.9566 11.7182 10.9339 11.6521 10.9126 11.5855C2.686 22.3267 48.3593 22.321 40.0732 11.5671C40.0518 11.6364 40.0291 11.7054 40.0052 11.7739C39.8746 12.1199 39.6139 12.4011 39.2787 12.5574C38.9436 12.7138 38.5606 12.7329 38.2115 12.6106C37.8625 12.4883 37.5751 12.2344 37.4108 11.9031C37.2464 11.5718 37.2182 11.1894 37.332 10.8375C37.536 10.251 37.5955 9.52 37.485 8.7125C37.4766 8.70627 37.4681 8.70013 37.4595 8.69408C37.1535 6.77875 35.989 4.66083 34 2.992V9.18C34 9.55572 33.8507 9.91606 33.5851 10.1817C33.3194 10.4474 32.9591 10.5967 32.5833 10.5967C32.2076 10.5967 31.8473 10.4474 31.5816 10.1817C31.3159 9.91606 31.1667 9.55572 31.1667 9.18V1.22117C30.6135 0.972688 30.0441 0.762065 29.4624 0.59075C28.63 0.348161 27.7783 0.178951 26.9167 0.0821668Z" fill="#FFC32A"/>
</svg>
