<svg width="53" height="53" viewBox="0 0 53 53" fill="none" xmlns="http://www.w3.org/2000/svg">
<path d="M53 0L41.7542 0.0114693V11.2445H53V0ZM39.75 0.0133623L13.25 0.0408667V11.2445H39.75V0.0133623ZM11.2458 0.0429826L0 0.0545634V11.2445H11.2458V0.0429826ZM0 13.2489V25.4978H25.4979V13.2489H0ZM27.5021 13.2489V25.4978H53V13.2489H27.5021ZM0 27.5022V39.7511H11.2458V27.5022H0ZM13.25 27.5022V39.7511H39.75V27.5022H13.25ZM41.7542 27.5022V39.7511H53V27.5022H41.7542ZM0 41.7555V53L25.4979 52.9737V41.7555H0ZM27.5021 41.7555V52.9718L53 52.9454V41.7555H27.5021Z" fill="#FFC32A"/>
</svg>
