<svg width="40" height="40" viewBox="0 0 40 40" fill="none" xmlns="http://www.w3.org/2000/svg">
<path d="M0.769231 18.3334H39.2308C39.4348 18.3334 39.6304 18.4212 39.7747 18.5774C39.919 18.7337 40 18.9457 40 19.1667V27.5C40 27.721 39.919 27.933 39.7747 28.0893C39.6304 28.2456 39.4348 28.3333 39.2308 28.3333H0.769231C0.565218 28.3333 0.369561 28.2456 0.225303 28.0893C0.0810439 27.933 0 27.721 0 27.5V19.1667C0 18.9457 0.0810439 18.7337 0.225303 18.5774C0.369561 18.4212 0.565218 18.3334 0.769231 18.3334ZM0 36.6667C0 37.5507 0.324175 38.3986 0.90121 39.0237C1.47824 39.6488 2.26087 40 3.07692 40H36.9231C37.7391 40 38.5218 39.6488 39.0988 39.0237C39.6758 38.3986 40 37.5507 40 36.6667V32.5C40 32.279 39.919 32.067 39.7747 31.9108C39.6304 31.7545 39.4348 31.6667 39.2308 31.6667H0.769231C0.565218 31.6667 0.369561 31.7545 0.225303 31.9108C0.0810439 32.067 0 32.279 0 32.5V36.6667ZM40 10V14.1667C40 14.3877 39.919 14.5997 39.7747 14.756C39.6304 14.9122 39.4348 15 39.2308 15H0.769231C0.565218 15 0.369561 14.9122 0.225303 14.756C0.0810439 14.5997 0 14.3877 0 14.1667V10C0 9.11598 0.324175 8.26813 0.90121 7.64301C1.47824 7.01789 2.26087 6.6667 3.07692 6.6667H10.7692V5.00004C10.7667 4.34266 10.8843 3.69124 11.1154 3.08337C11.3464 2.4755 11.6863 1.92321 12.1154 1.45836C12.5445 0.993521 13.0543 0.625328 13.6154 0.375031C14.1765 0.124734 14.7778 -0.00271258 15.3846 4.37718e-05H24.6154C25.2222 -0.00271258 25.8235 0.124734 26.3846 0.375031C26.9457 0.625328 27.4555 0.993521 27.8846 1.45836C28.3137 1.92321 28.6536 2.4755 28.8846 3.08337C29.1157 3.69124 29.2333 4.34266 29.2308 5.00004V6.6667H36.9231C37.7391 6.6667 38.5218 7.01789 39.0988 7.64301C39.6758 8.26813 40 9.11598 40 10ZM26.1538 5.00004C26.1538 4.55801 25.9918 4.13409 25.7032 3.82153C25.4147 3.50897 25.0234 3.33337 24.6154 3.33337H15.3846C14.9766 3.33337 14.5853 3.50897 14.2968 3.82153C14.0082 4.13409 13.8462 4.55801 13.8462 5.00004V6.6667H26.1538V5.00004Z" fill="white"/>
</svg>
