<svg width="38" height="40" viewBox="0 0 38 40" fill="none" xmlns="http://www.w3.org/2000/svg">
<path d="M35.8105 4.29688C36.1322 4.88281 36.4229 5.44271 36.6826 5.97656C36.9424 6.51042 37.1774 7.05078 37.3877 7.59766C37.598 8.14453 37.7464 8.71094 37.833 9.29688C37.9196 9.88281 37.9753 10.5339 38 11.25C38 12.2786 37.8763 13.2682 37.6289 14.2188C37.3815 15.1693 37.0228 16.0677 36.5527 16.9141C36.0827 17.7604 35.5199 18.5221 34.8643 19.1992C34.2087 19.8763 33.485 20.4622 32.6934 20.957C31.9017 21.4518 31.0544 21.8294 30.1514 22.0898C29.2484 22.3503 28.3021 22.487 27.3125 22.5C27.028 22.5 26.7435 22.487 26.459 22.4609C26.1745 22.4349 25.8838 22.3958 25.5869 22.3438L10.6318 38.0859C10.0381 38.7109 9.36393 39.1862 8.60938 39.5117C7.85482 39.8372 7.05697 40 6.21582 40C5.3623 40 4.55827 39.8307 3.80371 39.4922C3.04915 39.1536 2.39355 38.6849 1.83691 38.0859C1.28027 37.487 0.834961 36.7904 0.500977 35.9961C0.166992 35.2018 0 34.3555 0 33.457C0 32.5846 0.154622 31.7513 0.463867 30.957C0.773112 30.1628 1.22461 29.4466 1.81836 28.8086L16.7734 13.0664C16.724 12.7669 16.6868 12.4674 16.6621 12.168C16.6374 11.8685 16.625 11.5625 16.625 11.25C16.625 10.2214 16.7487 9.23177 16.9961 8.28125C17.2435 7.33073 17.6022 6.43229 18.0723 5.58594C18.5423 4.73958 19.1051 3.97786 19.7607 3.30078C20.4163 2.6237 21.14 2.03776 21.9316 1.54297C22.7233 1.04818 23.5706 0.670573 24.4736 0.410156C25.3766 0.14974 26.3229 0.0130208 27.3125 0C27.9805 0 28.5928 0.0520833 29.1494 0.15625C29.7061 0.260417 30.2503 0.423177 30.7822 0.644531C31.3141 0.865885 31.8275 1.10677 32.3223 1.36719C32.8171 1.6276 33.349 1.9401 33.918 2.30469L26.6074 10L28.5 11.9922L35.8105 4.29688ZM27.3125 20C28.4629 20 29.5391 19.7721 30.541 19.3164C31.543 18.8607 32.4212 18.2357 33.1758 17.4414C33.9303 16.6471 34.5241 15.7227 34.957 14.668C35.39 13.6133 35.6126 12.474 35.625 11.25C35.625 10.2995 35.4766 9.38151 35.1797 8.49609L28.5 15.5078L23.2676 10L29.9287 2.96875C29.0876 2.65625 28.2155 2.5 27.3125 2.5C26.1621 2.5 25.0859 2.72786 24.084 3.18359C23.082 3.63932 22.2038 4.26432 21.4492 5.05859C20.6947 5.85286 20.1009 6.77734 19.668 7.83203C19.235 8.88672 19.0124 10.026 19 11.25C19 11.7057 19.0371 12.1484 19.1113 12.5781C19.1855 13.0078 19.2721 13.4375 19.3711 13.8672L3.50684 30.5859C3.14811 30.9635 2.86979 31.3997 2.67188 31.8945C2.47396 32.3893 2.375 32.9102 2.375 33.457C2.375 34.0039 2.47396 34.5247 2.67188 35.0195C2.86979 35.5143 3.14811 35.944 3.50684 36.3086C3.86556 36.6732 4.27376 36.9596 4.73145 37.168C5.18913 37.3763 5.68392 37.487 6.21582 37.5C6.73535 37.5 7.23014 37.3958 7.7002 37.1875C8.17025 36.9792 8.58464 36.6862 8.94336 36.3086L24.8262 19.6094C25.2344 19.7135 25.6426 19.8047 26.0508 19.8828C26.459 19.9609 26.8796 20 27.3125 20Z" fill="white"/>
</svg>
