<svg width="40" height="30" viewBox="0 0 40 30" fill="none" xmlns="http://www.w3.org/2000/svg">
<path d="M35 7.50033H30V1.25006C30 0.91852 29.8683 0.600564 29.6339 0.366133C29.3995 0.131702 29.0815 0 28.75 0H1.25C0.918479 0 0.600537 0.131702 0.366116 0.366133C0.131696 0.600564 0 0.91852 0 1.25006V23.7511C0 24.0826 0.131696 24.4005 0.366116 24.635C0.600537 24.8694 0.918479 25.0011 1.25 25.0011H2.5V2.50011H27.5V17.1258C28.1374 16.9632 28.7922 16.8792 29.45 16.8757H30V10.0004H35C35.663 10.0004 36.2989 10.2638 36.7678 10.7327C37.2366 11.2016 37.5 11.8375 37.5 12.5006V13.7506H32.5V16.2507H37.5V22.501H34.5C34.0615 21.4823 33.3341 20.6144 32.4077 20.0046C31.4813 19.3948 30.3966 19.0698 29.2875 19.0698C28.1784 19.0698 27.0937 19.3948 26.1673 20.0046C25.2409 20.6144 24.5135 21.4823 24.075 22.501H15.5375C15.1073 21.4748 14.3824 20.5993 13.4546 19.9852C12.5268 19.3711 11.4376 19.0459 10.325 19.0508C9.26784 19.0742 8.24006 19.4031 7.36583 19.998C6.49159 20.5929 5.80832 21.4282 5.39856 22.403C4.98879 23.3779 4.87008 24.4505 5.05675 25.4914C5.24343 26.5322 5.7275 27.4967 6.4505 28.2684C7.17349 29.04 8.10446 29.5858 9.13093 29.8398C10.1574 30.0937 11.2354 30.045 12.2348 29.6994C13.2342 29.3539 14.1121 28.7263 14.7625 27.8926C15.4129 27.0588 15.808 26.0546 15.9 25.0011H23.75C23.9088 26.3683 24.5645 27.6295 25.5924 28.5449C26.6202 29.4603 27.9486 29.9661 29.325 29.9661C30.7014 29.9661 32.0298 29.4603 33.0576 28.5449C34.0855 27.6295 34.7412 26.3683 34.9 25.0011H38.75C39.0815 25.0011 39.3995 24.8694 39.6339 24.635C39.8683 24.4005 40 24.0826 40 23.7511V12.5006C40 11.1744 39.4732 9.90259 38.5355 8.96486C37.5979 8.02714 36.3261 7.50033 35 7.50033ZM10.325 27.5012C9.91894 27.5276 9.51178 27.4704 9.12871 27.3331C8.74565 27.1958 8.39481 26.9814 8.0979 26.7032C7.80099 26.4249 7.56432 26.0887 7.40253 25.7153C7.24074 25.3419 7.15726 24.9393 7.15726 24.5323C7.15726 24.1254 7.24074 23.7228 7.40253 23.3494C7.56432 22.976 7.80099 22.6398 8.0979 22.3615C8.39481 22.0833 8.74565 21.8689 9.12871 21.7316C9.51178 21.5943 9.91894 21.5371 10.325 21.5635C10.7311 21.5371 11.1382 21.5943 11.5213 21.7316C11.9044 21.8689 12.2552 22.0833 12.5521 22.3615C12.849 22.6398 13.0857 22.976 13.2475 23.3494C13.4093 23.7228 13.4927 24.1254 13.4927 24.5323C13.4927 24.9393 13.4093 25.3419 13.2475 25.7153C13.0857 26.0887 12.849 26.4249 12.5521 26.7032C12.2552 26.9814 11.9044 27.1958 11.5213 27.3331C11.1382 27.4704 10.7311 27.5276 10.325 27.5012ZM29.2875 27.5012C28.7059 27.4719 28.1456 27.2724 27.6763 26.9276C27.2069 26.5828 26.8491 26.1078 26.6471 25.5616C26.4452 25.0153 26.408 24.4218 26.5402 23.8546C26.6724 23.2874 26.9681 22.7714 27.3908 22.3707C27.8134 21.9701 28.3444 21.7022 28.9178 21.6005C29.4912 21.4987 30.0819 21.5675 30.6166 21.7984C31.1513 22.0292 31.6065 22.4119 31.9257 22.899C32.2449 23.3861 32.4142 23.9562 32.4125 24.5386C32.3896 25.3454 32.0478 26.1103 31.4621 26.6656C30.8763 27.2209 30.0944 27.5214 29.2875 27.5012Z" fill="white"/>
</svg>
