<svg width="43" height="40" viewBox="0 0 43 40" fill="none" xmlns="http://www.w3.org/2000/svg">
<path d="M0 8.18182C0 6.01187 0.728091 3.93079 2.0241 2.3964C3.32011 0.86201 5.07788 0 6.91071 0H36.0893C37.9221 0 39.6799 0.86201 40.9759 2.3964C42.2719 3.93079 43 6.01187 43 8.18182V31.8182C43 33.9881 42.2719 36.0692 40.9759 37.6036C39.6799 39.138 37.9221 40 36.0893 40H6.91071C5.07788 40 3.32011 39.138 2.0241 37.6036C0.728091 36.0692 0 33.9881 0 31.8182V8.18182ZM6.91071 3.63636C5.89247 3.63636 4.91594 4.11526 4.19593 4.9677C3.47592 5.82013 3.07143 6.97629 3.07143 8.18182V10.9091H39.9286V8.18182C39.9286 6.97629 39.5241 5.82013 38.8041 4.9677C38.0841 4.11526 37.1075 3.63636 36.0893 3.63636H6.91071ZM3.07143 31.8182C3.07143 33.0237 3.47592 34.1799 4.19593 35.0323C4.91594 35.8847 5.89247 36.3636 6.91071 36.3636H36.0893C37.1075 36.3636 38.0841 35.8847 38.8041 35.0323C39.5241 34.1799 39.9286 33.0237 39.9286 31.8182V14.5455H3.07143V31.8182ZM29.1786 25.4545H33.7857C34.193 25.4545 34.5836 25.6461 34.8716 25.9871C35.1596 26.3281 35.3214 26.7905 35.3214 27.2727C35.3214 27.7549 35.1596 28.2174 34.8716 28.5584C34.5836 28.8994 34.193 29.0909 33.7857 29.0909H29.1786C28.7713 29.0909 28.3807 28.8994 28.0927 28.5584C27.8047 28.2174 27.6429 27.7549 27.6429 27.2727C27.6429 26.7905 27.8047 26.3281 28.0927 25.9871C28.3807 25.6461 28.7713 25.4545 29.1786 25.4545Z" fill="white"/>
</svg>
