<svg width="38" height="40" viewBox="0 0 38 40" fill="none" xmlns="http://www.w3.org/2000/svg">
<path fill-rule="evenodd" clip-rule="evenodd" d="M16.3352 1.1643L13.4727 4.17471C13.2416 4.4181 12.9283 4.5552 12.6014 4.55601H8.09748C6.01526 4.55601 4.32821 6.33185 4.32821 8.52366V13.2646C4.32756 13.6095 4.19735 13.9402 3.96597 14.1845L1.10355 17.1949C0.396947 17.939 0 18.9479 0 20C0 21.0521 0.396947 22.061 1.10355 22.8051L3.96597 25.8182C4.1972 26.0615 4.32744 26.3913 4.32821 26.7354V31.4763C4.32821 33.6681 6.01526 35.444 8.09748 35.444H12.6014C12.9291 35.4447 13.2432 35.5817 13.4753 35.8253L16.3352 38.8384C17.042 39.5822 18.0005 40 19 40C19.9995 40 20.958 39.5822 21.6648 38.8384L24.5273 35.8253C24.7584 35.5819 25.0717 35.4448 25.3986 35.444H29.9025C31.9847 35.444 33.6718 33.6681 33.6718 31.4763V26.7354C33.6724 26.3905 33.8027 26.0598 34.034 25.8155L36.8964 22.8051C37.6031 22.061 38 21.0521 38 20C38 18.9479 37.6031 17.939 36.8964 17.1949L34.034 14.1818C33.8028 13.9385 33.6726 13.6087 33.6718 13.2646V8.52366C33.6718 6.33185 31.9847 4.55601 29.9025 4.55601H25.3986C25.0708 4.55591 24.7565 4.41875 24.5247 4.17471L21.6648 1.16163C20.958 0.417839 19.9995 0 19 0C18.0005 0 17.042 0.420505 16.3352 1.1643ZM11.7705 25.7222L24.4361 12.39L26.2295 14.2778L13.5639 27.61L11.7705 25.7222ZM12.6672 13.3339V16.0003H15.2003V13.3339H12.6672ZM22.7997 26.6661H25.3328V23.9997H22.7997V26.6661Z" fill="white"/>
</svg>
