<svg width="36" height="36" viewBox="0 0 36 36" fill="none" xmlns="http://www.w3.org/2000/svg">
<path d="M9.31897 7.215C10.002 5.063 11.729 3.283 14 2.308V5C14 5.26522 14.1053 5.51957 14.2929 5.70711C14.4804 5.89464 14.7348 6 15 6C15.2652 6 15.5195 5.89464 15.7071 5.70711C15.8946 5.51957 16 5.26522 16 5V1C16 0.734784 16.1053 0.48043 16.2929 0.292893C16.4804 0.105357 16.7348 0 17 0H19C19.2652 0 19.5195 0.105357 19.7071 0.292893C19.8946 0.48043 20 0.734784 20 1V5C20 5.26522 20.1053 5.51957 20.2929 5.70711C20.4804 5.89464 20.7348 6 21 6C21.2652 6 21.5195 5.89464 21.7071 5.70711C21.8946 5.51957 22 5.26522 22 5V2.308C24.304 3.297 26.047 5.113 26.71 7.307C26.453 7.515 26.024 7.767 25.355 8.011C23.863 8.555 21.36 9 17.474 9C14.675 9 12.426 8.564 10.908 8.01C10.176 7.743 9.64997 7.461 9.31897 7.215Z" fill="white"/>
<path fill-rule="evenodd" clip-rule="evenodd" d="M26.04 9.89003C26.925 9.56603 27.623 9.17803 28.119 8.73203C28.686 9.27503 29 9.87203 29 10.5C29 11.698 27.856 12.787 25.99 13.593C26.0442 14.6759 25.8777 15.7585 25.5006 16.7751C25.1236 17.7917 24.5438 18.721 23.7965 19.5066C23.0492 20.2922 22.1501 20.9177 21.1536 21.3451C20.1572 21.7725 19.0842 21.9929 18 21.9929C16.9158 21.9929 15.8428 21.7725 14.8464 21.3451C13.8499 20.9177 12.9508 20.2922 12.2035 19.5066C11.4562 18.721 10.8764 17.7917 10.4994 16.7751C10.1223 15.7585 9.9558 14.6759 10.01 13.593C8.144 12.787 7 11.698 7 10.5C7 9.85003 7.336 9.23303 7.941 8.67603L8.054 8.76603C8.598 9.18703 9.342 9.56803 10.224 9.88903C11.995 10.536 14.483 11 17.474 11C21.482 11 24.243 10.545 26.04 9.89003ZM12.006 14.274C12.0751 15.8173 12.7368 17.2745 13.8533 18.3422C14.9698 19.4099 16.4551 20.0058 18 20.0058C19.5449 20.0058 21.0302 19.4099 22.1467 18.3422C23.2632 17.2745 23.9249 15.8173 23.994 14.274C22.27 14.734 20.21 15 18 15C15.79 15 13.73 14.733 12.006 14.274ZM0 36H21V24.5L19 26V29.897C18.6722 29.9726 18.3363 30.0072 18 30C17.525 30 17.205 29.95 17 29.897V26.222L12.353 22.608C6.52 23.728 0 26.338 0 30V36ZM7 34H15V29.18L8.475 30.268L10.351 25.11C9.21446 25.4023 8.09562 25.7596 7 26.18V34ZM2 34H5V27.079L4.926 27.118C3.862 27.682 3.084 28.257 2.594 28.798C2.114 29.33 2 29.723 2 30V34Z" fill="white"/>
<path d="M26.57 19.65C27.148 19.06 27.95 19.655 27.774 20.462L27.748 20.58C27.6581 20.9913 27.6615 21.4175 27.758 21.8273C27.8545 22.2372 28.0416 22.6201 28.3057 22.9481C28.5697 23.2761 28.9038 23.5407 29.2836 23.7225C29.6633 23.9043 30.079 23.9986 30.5 23.9986C30.921 23.9986 31.3367 23.9043 31.7164 23.7225C32.0962 23.5407 32.4303 23.2761 32.6944 22.9481C32.9584 22.6201 33.1455 22.2372 33.242 21.8273C33.3385 21.4175 33.3419 20.9913 33.252 20.58L33.226 20.462C33.05 19.655 33.852 19.061 34.43 19.651C35.4381 20.6779 36.002 22.06 36 23.499C36.0006 24.4317 35.7638 25.3492 35.3119 26.1652C34.86 26.9811 34.2079 27.6686 33.417 28.163C33.138 28.337 33 28.671 33 29V34C33 34.5304 32.7893 35.0391 32.4142 35.4142C32.0391 35.7893 31.5304 36 31 36H30C29.4696 36 28.9609 35.7893 28.5858 35.4142C28.2107 35.0391 28 34.5304 28 34V29C28 28.671 27.862 28.337 27.583 28.163C26.7919 27.6685 26.1397 26.9809 25.6878 26.1647C25.236 25.3486 24.9992 24.4309 25 23.498C25 22 25.599 20.641 26.57 19.65Z" fill="white"/>
</svg>
